<svg width="395" height="160" viewBox="0 0 395 160" fill="none" xmlns="http://www.w3.org/2000/svg">
    <path d="M69.865 157.001V119.161H0.125V97.6008L77.345 0.800781H94.065V97.3808H113.425V119.161H94.065V157.001H69.865ZM24.765 97.3808H72.505V37.5408L24.765 97.3808Z" fill="#09AD67"/>
    <path d="M198.577 159.201C187.577 158.907 177.897 156.341 169.537 151.501C161.177 146.661 154.21 140.354 148.637 132.581C143.064 124.661 138.81 116.154 135.877 107.061C133.09 97.8208 131.697 88.8008 131.697 80.0008C131.697 70.6141 133.237 61.2274 136.317 51.8408C139.397 42.4541 143.87 33.9474 149.737 26.3208C155.604 18.5475 162.644 12.3875 170.857 7.84078C179.07 3.14745 188.31 0.800781 198.577 0.800781C209.577 0.800781 219.184 3.29411 227.397 8.28078C235.757 13.2674 242.724 19.7208 248.297 27.6408C253.87 35.5608 258.05 44.1408 260.837 53.3808C263.77 62.6208 265.237 71.4941 265.237 80.0008C265.237 89.5341 263.697 98.9941 260.617 108.381C257.537 117.621 253.064 126.054 247.197 133.681C241.33 141.307 234.29 147.467 226.077 152.161C218.01 156.707 208.844 159.054 198.577 159.201ZM156.777 80.0008C157.07 86.7475 158.024 93.4941 159.637 100.241C161.397 106.841 164.037 112.927 167.557 118.501C171.077 124.074 175.404 128.547 180.537 131.921C185.67 135.294 191.684 136.981 198.577 136.981C205.764 136.981 211.924 135.221 217.057 131.701C222.337 128.034 226.664 123.341 230.037 117.621C233.41 111.754 235.904 105.521 237.517 98.9208C239.277 92.3208 240.157 86.0141 240.157 80.0008C240.157 73.2541 239.204 66.5808 237.297 59.9808C235.537 53.2341 232.897 47.0741 229.377 41.5008C225.857 35.9275 221.53 31.4541 216.397 28.0808C211.264 24.7075 205.324 23.0208 198.577 23.0208C191.39 23.0208 185.157 24.8541 179.877 28.5208C174.597 32.0408 170.27 36.7341 166.897 42.6008C163.524 48.3208 160.957 54.4808 159.197 61.0808C157.584 67.6808 156.777 73.9875 156.777 80.0008Z" fill="#09AD67"/>
    <path d="M350.666 157.001V119.161H280.926V97.6008L358.146 0.800781H374.866V97.3808H394.226V119.161H374.866V157.001H350.666ZM305.566 97.3808H353.306V37.5408L305.566 97.3808Z" fill="#09AD67"/>
</svg>
