<svg fill="none" height="160" viewBox="0 0 413 160" width="413" xmlns="http://www.w3.org/2000/svg"><path d="m50.96 159.2c-11.2933 0-21.4133-2.493-30.36-7.48-8.8-5.133-15.62-12.1-20.46-20.9l14.52-13.86c4.1067 6.307 9.3867 11.367 15.84 15.18 6.4533 3.667 13.3467 5.5 20.68 5.5 6.0133 0 11.3667-1.247 16.06-3.74 4.6933-2.64 8.36-6.233 11-10.78 2.7867-4.547 4.18-9.827 4.18-15.84 0-5.867-1.32-11-3.96-15.4-2.4933-4.5467-6.0133-8.0667-10.56-10.56-4.4-2.4933-9.3867-3.74-14.96-3.74s-10.8533 1.2467-15.84 3.74c-4.84 2.4933-8.7267 6.0133-11.66 10.56h-21.56l17.82-91.080008h76.34v22.220008h-58.74l-7.92 42.46c2.64-2.64 6.0133-4.7667 10.12-6.38 4.2533-1.6133 9.0933-2.42 14.52-2.42 9.8267 0 18.5533 2.1267 26.18 6.38 7.7733 4.2533 13.86 10.12 18.26 17.6 4.547 7.48 6.82 16.1333 6.82 25.96 0 10.413-2.493 19.58-7.48 27.5-4.9867 7.773-11.7333 13.933-20.24 18.48-8.36 4.4-17.8933 6.6-28.6 6.6zm141.565 0c-11-.293-20.68-2.86-29.04-7.7s-15.327-11.147-20.9-18.92c-5.573-7.92-9.827-16.427-12.76-25.52-2.787-9.24-4.18-18.26-4.18-27.06 0-9.3867 1.54-18.7733 4.62-28.16s7.553-17.8933 13.42-25.52c5.867-7.7733 12.907-13.9333 21.12-18.48001 8.213-4.69333 17.453-7.039998 27.72-7.039998 11 0 20.607 2.493328 28.82 7.479998 8.36 4.98671 15.327 11.44001 20.9 19.36001s9.753 16.5 12.54 25.74c2.933 9.24 4.4 18.1133 4.4 26.62 0 9.5333-1.54 18.9933-4.62 28.38-3.08 9.24-7.553 17.673-13.42 25.3s-12.907 13.787-21.12 18.48c-8.067 4.547-17.233 6.893-27.5 7.04zm-41.8-79.2c.293 6.7467 1.247 13.4933 2.86 20.24 1.76 6.6 4.4 12.687 7.92 18.26s7.847 10.047 12.98 13.42 11.147 5.06 18.04 5.06c7.187 0 13.347-1.76 18.48-5.28 5.28-3.667 9.607-8.36 12.98-14.08 3.373-5.867 5.867-12.1 7.48-18.7 1.76-6.6 2.64-12.9067 2.64-18.92 0-6.7467-.953-13.42-2.86-20.02-1.76-6.7467-4.4-12.9067-7.92-18.48s-7.847-10.0467-12.98-13.42-11.073-5.06-17.82-5.06c-7.187 0-13.42 1.8333-18.7 5.5-5.28 3.52-9.607 8.2133-12.98 14.08-3.373 5.72-5.94 11.88-7.7 18.48-1.613 6.6-2.42 12.9067-2.42 18.92zm194.769 79.2c-11-.293-20.68-2.86-29.04-7.7s-15.327-11.147-20.9-18.92c-5.574-7.92-9.827-16.427-12.76-25.52-2.787-9.24-4.18-18.26-4.18-27.06 0-9.3867 1.54-18.7733 4.62-28.16s7.553-17.8933 13.42-25.52c5.866-7.7733 12.906-13.9333 21.12-18.48001 8.213-4.69333 17.453-7.039998 27.72-7.039998 11 0 20.606 2.493328 28.82 7.479998 8.36 4.98671 15.326 11.44001 20.9 19.36001 5.573 7.92 9.753 16.5 12.54 25.74 2.933 9.24 4.4 18.1133 4.4 26.62 0 9.5333-1.54 18.9933-4.62 28.38-3.08 9.24-7.554 17.673-13.42 25.3-5.867 7.627-12.907 13.787-21.12 18.48-8.067 4.547-17.234 6.893-27.5 7.04zm-41.8-79.2c.293 6.7467 1.246 13.4933 2.86 20.24 1.76 6.6 4.4 12.687 7.92 18.26s7.846 10.047 12.98 13.42c5.133 3.373 11.146 5.06 18.04 5.06 7.186 0 13.346-1.76 18.48-5.28 5.28-3.667 9.606-8.36 12.98-14.08 3.373-5.867 5.866-12.1 7.48-18.7 1.76-6.6 2.64-12.9067 2.64-18.92 0-6.7467-.954-13.42-2.86-20.02-1.76-6.7467-4.4-12.9067-7.92-18.48s-7.847-10.0467-12.98-13.42c-5.134-3.3733-11.074-5.06-17.82-5.06-7.187 0-13.42 1.8333-18.7 5.5-5.28 3.52-9.607 8.2133-12.98 14.08-3.374 5.72-5.94 11.88-7.7 18.48-1.614 6.6-2.42 12.9067-2.42 18.92z" fill="#09ad67"/></svg>