<svg width="80" height="80" viewBox="0 0 80 80" fill="none" xmlns="http://www.w3.org/2000/svg">
    <circle cx="40" cy="40" r="37.3333" fill="#09AD67" stroke="white" stroke-width="5.33333"/>
    <path d="M66.9318 39.2803C66.7186 39.497 66.4586 39.6069 66.1585 39.6069H62.9159V37.4096H66.1585C66.4604 37.4096 66.7203 37.5187 66.9318 37.7337C67.1438 37.9517 67.2514 38.2145 67.2514 38.514C67.2514 38.8074 67.1438 39.0653 66.9318 39.2803ZM68.1739 36.4988C67.6238 35.9489 66.9455 35.6699 66.1585 35.6699H61.1677V44.4021H62.9217V41.3353H66.1585C66.9458 41.3353 67.6241 41.0563 68.1739 40.5063C68.7221 39.9579 68.9998 39.2878 68.9998 38.514C68.9998 37.7252 68.7218 37.0471 68.1739 36.4988Z" fill="#505050"/>
    <path d="M25.4434 35.2844C24.1153 35.2844 22.9907 35.7451 22.0665 36.6693C21.1422 37.5937 20.6785 38.7153 20.6785 40.0343C20.6785 41.3626 21.1422 42.4842 22.0665 43.4054C22.9907 44.3267 24.1153 44.7873 25.4434 44.7873C26.7596 44.7873 27.8812 44.3267 28.8055 43.4054C29.7297 42.4842 30.1933 41.3626 30.1933 40.0343C30.1933 38.7153 29.7297 37.5937 28.8055 36.6693C27.8812 35.7451 26.7596 35.2844 25.4434 35.2844" fill="#505050"/>
    <path d="M41.566 40.9053H46.9495V39.1542H41.566V37.4205H47.2434V35.6699H39.8154V44.4021H47.2434V42.6516H41.566V40.9053Z" fill="white"/>
    <path d="M50.9266 39.2269C50.7026 39.0026 50.4379 38.8936 50.1175 38.8936C49.7944 38.8936 49.5286 39.0026 49.3046 39.2269C49.0799 39.4512 48.9707 39.7164 48.9707 40.0369C48.9707 40.3591 49.0799 40.6243 49.3043 40.848C49.5286 41.0719 49.7948 41.1808 50.1175 41.1808C50.4376 41.1808 50.7026 41.0719 50.9269 40.848C51.1515 40.6243 51.2607 40.3587 51.2607 40.0369C51.2607 39.7164 51.1516 39.4516 50.9266 39.2269Z" fill="#505050"/>
    <path d="M36.8009 39.2836C36.5868 39.5008 36.3256 39.6109 36.0244 39.6109H32.7789V37.4205H36.0244C36.3263 37.4205 36.5874 37.5286 36.8003 37.7412C37.0112 37.9524 37.1181 38.2123 37.1181 38.5142C37.1181 38.8109 37.0112 39.07 36.8009 39.2836ZM37.182 41.1062C37.492 40.9719 37.782 40.7713 38.0432 40.5098V40.5095C38.5929 39.9601 38.8716 39.2888 38.8716 38.5142C38.8716 37.726 38.5929 37.0478 38.0432 36.4983C37.4862 35.9407 36.826 35.6699 36.0244 35.6699H31.0283V44.4021H32.7789V41.3379H35.4265L37.1092 44.4021H38.8516L37.0687 41.155L37.182 41.1062Z" fill="white"/>
    <path d="M60.0235 35.6699H58.0995L55.7345 38.7737L53.3691 35.6699H51.4456L54.7746 40.0381L51.4456 44.4021H53.3691L55.7345 41.2986L58.0995 44.4021H60.0232L56.6982 40.0381L60.0235 35.6699Z" fill="#505050"/>
    <path d="M20.102 42.5086C19.5319 43.4121 18.6593 44.1046 17.6267 44.442C17.4963 44.4864 17.3564 44.5254 17.2099 44.559C17.1695 44.5684 17.1278 44.5778 17.0848 44.5859C17.0485 44.5939 17.0122 44.6007 16.9746 44.6061C16.6452 44.6679 16.2821 44.7002 15.9056 44.7002C15.5265 44.7002 15.1635 44.6666 14.8327 44.6061C14.8166 44.6034 14.8004 44.6007 14.7843 44.598C14.7413 44.5899 14.6996 44.5805 14.6579 44.5725C12.5618 44.1274 10.99 42.2639 10.99 40.0346C10.99 37.8981 12.4354 36.0978 14.4011 35.5599C14.4441 35.5492 14.4885 35.5371 14.5329 35.5263C14.5732 35.5169 14.6149 35.5075 14.6566 35.4981C14.6915 35.49 14.7265 35.4833 14.7614 35.4766C14.7762 35.4739 14.791 35.4712 14.8072 35.4685C15.1446 35.4053 15.5157 35.3704 15.9043 35.3704C16.2808 35.3704 16.6425 35.4026 16.9719 35.4645C17.0082 35.4712 17.0458 35.4779 17.0821 35.4847C17.1306 35.494 17.179 35.5048 17.2274 35.5156C17.3174 35.5357 17.4048 35.5599 17.4922 35.5868C17.5473 35.6016 17.6011 35.6191 17.6536 35.6366C18.419 35.8927 19.0951 36.344 19.6236 36.9308C19.7997 37.1265 19.9595 37.3372 20.1006 37.5606L19.6973 37.8026L18.4778 38.5341C18.3191 38.2921 18.1242 38.0769 17.8996 37.8968C17.8216 37.8255 17.7342 37.761 17.6374 37.7005C17.4855 37.6036 17.3107 37.5216 17.1185 37.4544C17.0136 37.4168 16.9047 37.3845 16.789 37.3576C16.5161 37.2917 16.2176 37.2568 15.9043 37.2568C15.5749 37.2568 15.263 37.2958 14.9779 37.367C14.9766 37.3684 14.9739 37.3684 14.9726 37.3684C14.9389 37.3764 14.9067 37.3845 14.8744 37.3953C14.8045 37.4154 14.7359 37.4369 14.67 37.4611C14.4858 37.527 14.3177 37.6077 14.1712 37.7005C14.0838 37.7556 14.0045 37.8134 13.9319 37.8766L13.9305 37.8779C13.2918 38.3795 12.8831 39.1593 12.8831 40.0346C12.8831 40.9099 13.2932 41.6911 13.9319 42.1913C13.9493 42.206 13.9668 42.2208 13.9856 42.2343C14.0435 42.2827 14.1066 42.327 14.1739 42.3701C14.3137 42.4575 14.4737 42.5355 14.6485 42.5987C14.6566 42.6027 14.6646 42.6054 14.6727 42.6081C14.7023 42.6202 14.7319 42.6309 14.7628 42.639C14.7668 42.6403 14.7709 42.6417 14.7762 42.6444C14.8085 42.6551 14.8408 42.6659 14.8744 42.6739C14.9093 42.6834 14.9443 42.6928 14.9806 42.7022C14.99 42.7049 14.9994 42.7062 15.0102 42.7089C15.2872 42.7761 15.5897 42.8124 15.9056 42.8124C16.2189 42.8124 16.5174 42.7775 16.7904 42.7116C16.906 42.6847 17.0149 42.6524 17.1198 42.6148C17.3121 42.5489 17.4855 42.4655 17.6374 42.3701C17.7423 42.3056 17.8351 42.2343 17.9171 42.1576C17.9184 42.1576 17.9198 42.1563 17.9211 42.155C18.1363 41.9775 18.3245 41.7677 18.4778 41.5338L19.6986 42.2665L20.102 42.5086Z" fill="white"/>
</svg>
