<svg width="24" height="24" viewBox="0 0 24 24" fill="none" xmlns="http://www.w3.org/2000/svg">
    <path fill-rule="evenodd" clip-rule="evenodd" d="M7.54723 11.822C7.51186 11.937 7.51186 12.0599 7.54723 12.1749C7.55153 12.1889 7.57093 12.2469 7.7008 12.4008C7.83783 12.563 8.03616 12.7624 8.35405 13.0803L13.6358 18.362C13.9873 18.7135 13.9873 19.2834 13.6358 19.6348C13.2843 19.9863 12.7145 19.9863 12.363 19.6348L7.05688 14.3287C6.77071 14.0426 6.51745 13.7894 6.32549 13.562C6.12095 13.3198 5.93205 13.0463 5.8268 12.7041C5.68534 12.2443 5.68534 11.7526 5.8268 11.2927C5.93205 10.9506 6.12095 10.6771 6.32549 10.4349C6.51745 10.2075 6.77069 9.9543 7.05686 9.66817L12.363 4.36204C12.7145 4.01057 13.2843 4.01057 13.6358 4.36204C13.9873 4.71351 13.9873 5.28336 13.6358 5.63483L8.35405 10.9166C8.03616 11.2345 7.83783 11.4338 7.7008 11.5961C7.57093 11.7499 7.55153 11.808 7.54723 11.822Z" fill="#505050"/>
</svg>
