<svg width="24" height="24" viewBox="0 0 24 24" fill="none" xmlns="http://www.w3.org/2000/svg">
<path fill-rule="evenodd" clip-rule="evenodd" d="M11.822 16.4528C11.937 16.4881 12.0599 16.4881 12.1749 16.4528C12.1889 16.4485 12.2469 16.4291 12.4008 16.2992C12.563 16.1622 12.7624 15.9638 13.0803 15.646L18.362 10.3642C18.7135 10.0127 19.2834 10.0127 19.6348 10.3642C19.9863 10.7157 19.9863 11.2855 19.6348 11.637L14.3287 16.9431C14.0426 17.2293 13.7894 17.4825 13.562 17.6745C13.3198 17.8791 13.0463 18.0679 12.7041 18.1732C12.2443 18.3147 11.7526 18.3147 11.2927 18.1732C10.9506 18.0679 10.6771 17.8791 10.4349 17.6745C10.2075 17.4826 9.9543 17.2293 9.66817 16.9431L4.36204 11.637C4.01057 11.2855 4.01057 10.7157 4.36204 10.3642C4.71351 10.0127 5.28336 10.0127 5.63483 10.3642L10.9166 15.646C11.2345 15.9638 11.4338 16.1622 11.5961 16.2992C11.7499 16.4291 11.808 16.4485 11.822 16.4528Z" fill="#505050"/>
</svg>
