<svg fill="none" height="44" viewBox="0 0 44 44" width="44" xmlns="http://www.w3.org/2000/svg" xmlns:xlink="http://www.w3.org/1999/xlink"><clipPath id="a"><path d="m0 1h43v42h-43z"/></clipPath><g clip-path="url(#a)"><path clip-rule="evenodd" d="m2.6875 22c0 4.8734 1.98203 9.5471 5.51005 12.9931 3.52805 3.446 8.31305 5.3819 13.30245 5.3819s9.7744-1.9359 13.3024-5.3819c3.5281-3.446 5.5101-8.1197 5.5101-12.9931s-1.982-9.5471-5.5101-12.99309c-3.528-3.44598-8.313-5.38191-13.3024-5.38191s-9.7744 1.93593-13.30245 5.38191c-3.52802 3.44599-5.51005 8.11969-5.51005 12.99309zm40.3125 0c0 5.5695-2.2652 10.911-6.2972 14.8492-4.032 3.9383-9.5006 6.1508-15.2028 6.1508s-11.1708-2.2125-15.2028-6.1508c-4.03203-3.9382-6.2972-9.2797-6.2972-14.8492s2.26517-10.911 6.2972-14.84924c4.032-3.93827 9.5006-6.15076 15.2028-6.15076s11.1708 2.21249 15.2028 6.15076c4.032 3.93824 6.2972 9.27974 6.2972 14.84924zm-12.0938-1.3125c.3564 0 .6982.1383.9502.3844.252.2462.3936.58.3936.9281s-.1416.6819-.3936.9281c-.252.2461-.5938.3844-.9502.3844h-15.5686l5.77 5.6332c.125.1221.2241.267.2917.4264s.1024.3303.1024.5029-.0348.3435-.1024.5029-.1667.3043-.2917.4264c-.1249.122-.2732.2188-.4365.2848-.1632.0661-.3382.1001-.5149.1001-.1766 0-.3516-.034-.5148-.1001-.1633-.066-.3116-.1628-.4365-.2848l-8.0625-7.875c-.1252-.122-.2244-.2668-.2922-.4263-.0677-.1594-.1026-.3304-.1026-.503s.0349-.3436.1026-.503c.0678-.1595.167-.3043.2922-.4263l8.0625-7.875c.2523-.2464.5945-.3849.9513-.3849.3569 0 .6991.1385.9514.3849.2523.2465.3941.5808.3941.9293s-.1418.6828-.3941.9293l-5.77 5.6332z" fill="#ccd6da" fill-rule="evenodd"/></g></svg>