<svg width="6" height="9" viewBox="0 0 6 9" fill="none" xmlns="http://www.w3.org/2000/svg">
<mask id="path-1-inside-1_3553_16014" fill="white">
<path d="M0.953125 7.20833L3.86979 4.29167L0.953125 1.375L0.953125 0.208333L5.03646 4.29167L0.953125 8.375L0.953125 7.20833Z"/>
</mask>
<path d="M0.953125 7.20833L3.86979 4.29167L0.953125 1.375L0.953125 0.208333L5.03646 4.29167L0.953125 8.375L0.953125 7.20833Z" fill="#505050"/>
<path d="M0.953125 7.20833L0.246018 6.50123L-0.0468751 6.79412L-0.0468751 7.20833L0.953125 7.20833ZM3.86979 4.29167L4.5769 4.99877L5.28401 4.29167L4.5769 3.58456L3.86979 4.29167ZM0.953125 1.375L-0.0468753 1.375L-0.0468753 1.78921L0.246018 2.08211L0.953125 1.375ZM0.953125 0.208333L1.66023 -0.498774L-0.0468755 -2.20588L-0.0468754 0.208333L0.953125 0.208333ZM5.03646 4.29167L5.74357 4.99877L6.45067 4.29167L5.74357 3.58456L5.03646 4.29167ZM0.953125 8.375L-0.046875 8.375L-0.0468749 10.7892L1.66023 9.08211L0.953125 8.375ZM1.66023 7.91544L4.5769 4.99877L3.16268 3.58456L0.246018 6.50123L1.66023 7.91544ZM4.5769 3.58456L1.66023 0.667893L0.246018 2.08211L3.16269 4.99877L4.5769 3.58456ZM1.95312 1.375L1.95312 0.208333L-0.0468754 0.208333L-0.0468753 1.375L1.95312 1.375ZM0.246018 0.91544L4.32935 4.99877L5.74357 3.58456L1.66023 -0.498774L0.246018 0.91544ZM4.32935 3.58456L0.246018 7.66789L1.66023 9.08211L5.74357 4.99877L4.32935 3.58456ZM1.95312 8.375L1.95312 7.20833L-0.0468751 7.20833L-0.046875 8.375L1.95312 8.375Z" fill="#505050" mask="url(#path-1-inside-1_3553_16014)"/>
</svg>
