<svg fill="none" height="44" viewBox="0 0 44 44" width="44" xmlns="http://www.w3.org/2000/svg"><path d="m1 37.75c0 1.3924.5663 2.7277 1.5743 3.7123 1.00801.9846 2.37516 1.5377 3.8007 1.5377h32.25c1.4255 0 2.7927-.5531 3.8007-1.5377s1.5743-2.3199 1.5743-3.7123v-31.5c0-1.39239-.5663-2.72774-1.5743-3.71231s-2.3752-1.53769-3.8007-1.53769h-32.25c-1.42554 0-2.79269.55312-3.8007 1.53769-1.008.98457-1.5743 2.31992-1.5743 3.71231zm12.0938-17.0625h15.5686l-5.77-5.6332c-.2523-.2465-.3941-.5808-.3941-.9293s.1418-.6828.3941-.9293c.2523-.2464.5945-.3849.9514-.3849.3568 0 .699.1385.9513.3849l8.0625 7.875c.1252.122.2244.2668.2922.4263.0677.1594.1026.3304.1026.503s-.0349.3436-.1026.503c-.0678.1595-.167.3043-.2922.4263l-8.0625 7.875c-.2523.2464-.5945.3849-.9513.3849-.3569 0-.6991-.1385-.9514-.3849-.2523-.2465-.3941-.5808-.3941-.9293s.1418-.6828.3941-.9293l5.77-5.6332h-15.5686c-.3564 0-.6982-.1383-.9502-.3844-.252-.2462-.3936-.58-.3936-.9281s.1416-.6819.3936-.9281c.252-.2461.5938-.3844.9502-.3844z" fill="#505050"/></svg>