<svg width="24" height="24" viewBox="0 0 24 24" fill="none" xmlns="http://www.w3.org/2000/svg">
<path fill-rule="evenodd" clip-rule="evenodd" d="M10.8396 14.1735C10.9545 14.2088 11.0775 14.2088 11.1924 14.1735C11.2064 14.1692 11.2645 14.1498 11.4183 14.0199C11.5806 13.8829 11.78 13.6845 12.0979 13.3667L18.4636 7C18.8151 6.64853 19.3849 6.64853 19.7364 7C20.0879 7.35147 20.0879 7.92132 19.7364 8.27279L13.3463 14.6638C13.0602 14.95 12.8069 15.2032 12.5796 15.3952C12.3373 15.5998 12.0638 15.7887 11.7217 15.8939C11.2619 16.0354 10.7701 16.0354 10.3103 15.8939C9.96816 15.7887 9.69467 15.5998 9.45242 15.3952C9.22508 15.2033 8.97186 14.95 8.68572 14.6638L5.29469 11.2728C4.94322 10.9213 4.94322 10.3515 5.29469 10C5.64616 9.64853 6.21599 9.64853 6.56746 10L9.93412 13.3667C10.252 13.6845 10.4514 13.8829 10.6137 14.0199C10.7675 14.1498 10.8256 14.1692 10.8396 14.1735Z" fill="#505050"/>
</svg>
