<svg width="36" height="36" viewBox="0 0 36 36" fill="none" xmlns="http://www.w3.org/2000/svg">
<path d="M10.1212 8.70696C9.73064 8.31643 9.09748 8.31643 8.70696 8.70696C8.31643 9.09748 8.31643 9.73065 8.70696 10.1212L16.5857 17.9999L8.70708 25.8785C8.31655 26.2691 8.31655 26.9022 8.70708 27.2927C9.0976 27.6833 9.73077 27.6833 10.1213 27.2927L17.9999 19.4141L25.6775 27.0917C26.068 27.4823 26.7012 27.4823 27.0917 27.0917C27.4823 26.7012 27.4823 26.068 27.0917 25.6775L19.4141 17.9999L27.0919 10.3222C27.4824 9.93166 27.4824 9.29849 27.0919 8.90797C26.7013 8.51744 26.0682 8.51744 25.6776 8.90797L17.9999 16.5857L10.1212 8.70696Z" fill="#505050"/>
</svg>
