<svg fill="none" height="24" viewBox="0 0 24 24" width="24" xmlns="http://www.w3.org/2000/svg"><path clip-rule="evenodd" d="m6.3637 6.36321c.35147-.35147.92132-.35147 1.27279 0l4.61361 4.61359 4.6136-4.61359c.3515-.35147.9213-.35147 1.2728 0 .3515.35148.3515.92132 0 1.2728l-4.6136 4.61359 4.6136 4.6136c.3515.3515.3515.9213 0 1.2728s-.9213.3515-1.2728 0l-4.6136-4.6136-4.61361 4.6136c-.35147.3515-.92132.3515-1.27279 0s-.35147-.9213 0-1.2728l4.6136-4.6136-4.6136-4.61359c-.35147-.35148-.35147-.92132 0-1.2728z" fill="#505050" fill-rule="evenodd"/></svg>