<svg width="34" height="34" viewBox="0 0 34 34" fill="none" xmlns="http://www.w3.org/2000/svg">
    <path d="M10.4844 23.9648C10.4844 23.5286 10.582 23.1999 10.7773 22.9785C10.9792 22.7507 11.2656 22.6367 11.6367 22.6367C12.0143 22.6367 12.3073 22.7507 12.5156 22.9785C12.7305 23.1999 12.8379 23.5286 12.8379 23.9648C12.8379 24.388 12.7305 24.7135 12.5156 24.9414C12.3008 25.1693 12.0078 25.2832 11.6367 25.2832C11.3047 25.2832 11.028 25.1823 10.8066 24.9805C10.5918 24.7721 10.4844 24.4336 10.4844 23.9648ZM15.8164 23.9648C15.8164 23.5286 15.9141 23.1999 16.1094 22.9785C16.3112 22.7507 16.5977 22.6367 16.9688 22.6367C17.3464 22.6367 17.6393 22.7507 17.8477 22.9785C18.0625 23.1999 18.1699 23.5286 18.1699 23.9648C18.1699 24.388 18.0625 24.7135 17.8477 24.9414C17.6328 25.1693 17.3398 25.2832 16.9688 25.2832C16.6367 25.2832 16.36 25.1823 16.1387 24.9805C15.9238 24.7721 15.8164 24.4336 15.8164 23.9648ZM21.1484 23.9648C21.1484 23.5286 21.2461 23.1999 21.4414 22.9785C21.6432 22.7507 21.9297 22.6367 22.3008 22.6367C22.6784 22.6367 22.9714 22.7507 23.1797 22.9785C23.3945 23.1999 23.502 23.5286 23.502 23.9648C23.502 24.388 23.3945 24.7135 23.1797 24.9414C22.9648 25.1693 22.6719 25.2832 22.3008 25.2832C21.9688 25.2832 21.6921 25.1823 21.4707 24.9805C21.2559 24.7721 21.1484 24.4336 21.1484 23.9648Z" fill="#505050"/>
</svg>
