<svg fill="none" height="24" viewBox="0 0 24 24" width="24" xmlns="http://www.w3.org/2000/svg"><path clip-rule="evenodd" d="m18.1819 10.1625c0 3.7781-3.0628 6.8409-6.841 6.8409-3.7781 0-6.8409-3.0628-6.8409-6.8409 0-3.77817 3.0628-6.84097 6.8409-6.84097 3.7782 0 6.841 3.0628 6.841 6.84097zm-1.5596 6.4562c-1.4383 1.1779-3.2773 1.8847-5.2814 1.8847-4.60653 0-8.3409-3.7343-8.3409-8.3409s3.73437-8.34097 8.3409-8.34097c4.6066 0 8.341 3.73437 8.341 8.34097 0 2.0624-.7485 3.9499-1.9887 5.4058l5.1854 5.1854c.2929.2929.2929.7677 0 1.0606s-.7678.2929-1.0607 0z" fill="#505050" fill-rule="evenodd"/></svg>