<svg width="24" height="24" viewBox="0 0 24 24" fill="none" xmlns="http://www.w3.org/2000/svg">
<path fill-rule="evenodd" clip-rule="evenodd" d="M12 7.64032L12.4437 7.17634C13.9435 5.60789 16.3753 5.60789 17.8751 7.17634C19.375 8.74478 19.375 11.2877 17.8751 12.8562L12 19L6.12488 12.8562C4.62504 11.2877 4.62504 8.74478 6.12489 7.17634C7.62473 5.60789 10.0565 5.60789 11.5563 7.17634L12 7.64032ZM12 9.75781L13.4561 8.23508C14.3968 7.25137 15.922 7.25137 16.8627 8.23508C17.8034 9.2188 17.8034 10.8137 16.8627 11.7974L12 16.8825L7.13732 11.7974C6.19663 10.8137 6.19663 9.2188 7.13733 8.23508C8.07802 7.25137 9.60318 7.25137 10.5439 8.23508L12 9.75781Z" fill="#505050"/>
</svg>
