<svg width="26" height="26" viewBox="0 0 26 26" fill="none" xmlns="http://www.w3.org/2000/svg">
    <path d="M14.2 18.875V17.3739C14.6854 17.0316 15 16.4872 15 15.875C15 14.8411 14.1028 14 13 14C11.8972 14 11 14.8411 11 15.875C11 16.4872 11.3146 17.0316 11.8 17.3739V18.875C11.8 19.4963 12.3373 20 13 20C13.6627 20 14.2 19.4963 14.2 18.875Z" fill="#505050"/>
    <path fill-rule="evenodd" clip-rule="evenodd" d="M20 9H20.5C21.3284 9 22 9.67157 22 10.5V23.5C22 24.3284 21.3284 25 20.5 25H5.5C4.67157 25 4 24.3284 4 23.5V10.5C4 9.67157 4.67157 9 5.5 9H6V8C6 4.13401 9.13401 1 13 1C16.866 1 20 4.13401 20 8V9ZM18.2 9V8C18.2 5.12812 15.8719 2.8 13 2.8C10.1281 2.8 7.8 5.12812 7.8 8V9H18.2ZM5.6 10.6V23.4H20.4V10.6H5.6Z" fill="#505050"/>
</svg>
