<svg fill="none" height="24" viewBox="0 0 24 24" width="24" xmlns="http://www.w3.org/2000/svg"><path d="m22 8.608v8.142c.0001.8301-.3176 1.6288-.8877 2.2322s-1.3495.9658-2.1783 1.0128l-.184.005h-13.5c-.83014.0001-1.62883-.3176-2.23223-.8877s-.96577-1.3495-1.01277-2.1783l-.005-.184v-8.142l9.652 5.056c.1074.0562.2268.0856.348.0856s.2406-.0294.348-.0856zm-16.75-4.608h13.5c.8056-.0001 1.5825.299 2.18.83927.5976.54027.9732 1.28321 1.054 2.08473l-9.984 5.23-9.984-5.23c.07752-.76969.42705-1.48648.98575-2.02154.5587-.53505 1.28993-.85327 2.06225-.89746l.186-.005h13.5z" fill="#fff"/></svg>