<svg fill="none" height="36" viewBox="0 0 36 36" width="36" xmlns="http://www.w3.org/2000/svg"><path d="m10.1212 8.70696c-.39056-.39053-1.02372-.39053-1.41424 0-.39053.39052-.39053 1.02369 0 1.41424l7.87874 7.8787-7.87862 7.8786c-.39053.3906-.39053 1.0237 0 1.4142.39052.3906 1.02369.3906 1.41422 0l7.8786-7.8786 7.6776 7.6776c.3905.3906 1.0237.3906 1.4142 0 .3906-.3905.3906-1.0237 0-1.4142l-7.6776-7.6776 7.6778-7.6777c.3905-.39054.3905-1.02371 0-1.41423-.3906-.39053-1.0237-.39053-1.4143 0l-7.6777 7.67773z" fill="#505050"/></svg>