<svg width="20" height="20" viewBox="0 0 20 20" fill="none" xmlns="http://www.w3.org/2000/svg">
<path d="M14.3504 17.4161C13.6787 17.4161 12.7351 17.1732 11.3222 16.3838C9.60402 15.4202 8.27504 14.5307 6.56615 12.8263C4.91852 11.1797 4.11673 10.1136 2.99456 8.07163C1.72683 5.76604 1.94294 4.5575 2.18451 4.04098C2.47219 3.42364 2.89683 3.0544 3.4457 2.68791C3.75745 2.48366 4.08736 2.30857 4.43125 2.16486C4.46566 2.15006 4.49766 2.13595 4.52623 2.12322C4.69656 2.04648 4.95465 1.93051 5.28156 2.0544C5.49973 2.1363 5.6945 2.30388 5.99939 2.60498C6.62465 3.22164 7.47909 4.59501 7.7943 5.26948C8.00594 5.72406 8.14599 6.02413 8.14634 6.36068C8.14634 6.75469 7.94813 7.05855 7.70759 7.38649C7.66251 7.44809 7.61777 7.50693 7.57441 7.56405C7.31254 7.90817 7.25507 8.00762 7.29293 8.18519C7.36966 8.54204 7.94193 9.60432 8.8824 10.5427C9.82288 11.4811 10.8545 12.0173 11.2128 12.0937C11.3979 12.1332 11.4994 12.0734 11.8545 11.8022C11.9055 11.7633 11.9578 11.7231 12.0125 11.6828C12.3793 11.4099 12.6691 11.2169 13.0538 11.2169H13.0559C13.3907 11.2169 13.6773 11.3621 14.1522 11.6016C14.7716 11.914 16.1863 12.7575 16.8067 13.3834C17.1085 13.6876 17.2768 13.8817 17.359 14.0995C17.4829 14.4275 17.3663 14.6845 17.2902 14.8566C17.2775 14.8851 17.2634 14.9165 17.2486 14.9512C17.1037 15.2945 16.9276 15.6237 16.7224 15.9347C16.3566 16.4818 15.986 16.9055 15.3673 17.1935C15.0496 17.3438 14.7019 17.4199 14.3504 17.4161Z" fill="#505050"/>
</svg>
