<svg width="36" height="36" viewBox="0 0 36 36" fill="none" xmlns="http://www.w3.org/2000/svg">
<path fill-rule="evenodd" clip-rule="evenodd" d="M23.6177 24.0319C22.078 25.2635 20.125 26 18 26C13.0294 26 9 21.9706 9 17C9 12.0294 13.0294 8 18 8C22.9706 8 27 12.0294 27 17C27 19.125 26.2635 21.078 25.0319 22.6177L30 27.5858C30.3905 27.9763 30.3905 28.6095 30 29C29.6095 29.3905 28.9763 29.3905 28.5858 29L23.6177 24.0319ZM25 17C25 20.866 21.866 24 18 24C14.134 24 11 20.866 11 17C11 13.134 14.134 10 18 10C21.866 10 25 13.134 25 17Z" fill="#505050"/>
</svg>
