<svg width="24" height="24" viewBox="0 0 24 24" fill="none" xmlns="http://www.w3.org/2000/svg">
<path fill-rule="evenodd" clip-rule="evenodd" d="M14.7112 9.44648V7.21341L18.8381 11.4792L14.7112 15.5554V13.4755L13.5188 13.3764C9.84471 13.0711 7.24237 14.0491 5.51847 15.2057C5.75296 13.8266 6.22416 12.6058 7.1455 11.5905C9.0344 9.50712 11.8416 9.30833 13.3487 9.38089L14.7112 9.44648ZM4.06816 16.3917C4.01403 17.1054 4.00029 17.8258 4.00029 18.5393C4.00029 18.5393 4.39909 17.8131 5.33435 16.9858C6.71331 15.7661 9.25849 14.3269 13.4112 14.672V17.2307C13.4112 17.7634 14.0538 18.0319 14.4328 17.6576L20.2445 11.9173C20.4785 11.6861 20.4828 11.3096 20.2541 11.0732L14.4424 5.06592C14.0674 4.67829 13.4112 4.94376 13.4112 5.4831V8.08239C13.0956 8.0672 12.7138 8.0619 12.2865 8.08239C10.538 8.16621 8.02804 8.68166 6.18276 10.7169C4.71609 12.3333 4.22423 14.3344 4.06816 16.3917Z" fill="#505050"/>
</svg>
