<svg fill="none" height="25" viewBox="0 0 52 25" width="52" xmlns="http://www.w3.org/2000/svg"><path clip-rule="evenodd" d="m11.7022 4.16504h28.2314c2.2474 0 4.0693 1.86581 4.0693 4.16741v8.33485c0 2.3016-1.8219 4.1674-4.0693 4.1674h-28.2314c-2.24746 0-4.06939-1.8658-4.06939-4.1674v-8.33485c0-2.3016 1.82193-4.16741 4.06939-4.16741zm4.1084 7.33886c.599-.614.708-1.53399.7278-3.17089h.2362c.0198 1.6369.1288 2.55689.7278 3.17089s1.4966.7257 3.0936.746v.242c-1.597.0204-2.4946.1321-3.0936.746-.599.614-.708 1.534-.7278 3.1709h-.2362c-.0198-1.6369-.1288-2.5569-.7278-3.1709-.599-.6139-1.4966-.7256-3.0936-.746v-.242c1.597-.0203 2.4946-.132 3.0936-.746zm7.5069 5.1635v-1.2686h3.1753v1.2686h.9645v-2.091h-.5548v-5.25804h-3.6276l-.1025 3.01834c-.0341.9798-.1365 1.776-.4097 2.2397h-.4097v2.091zm.7597-4.1907.0768-2.336h1.7157v4.4357h-2.1339c.1792-.4112.3073-1.1199.3414-2.0997zm3.8036 1.7843c.2731.2099.7853.4024 1.3059.4024.478 0 .7256-.2187.7256-.5687 0-.3849-.2049-.5424-.7256-.5424h-.6401v-.7874h.6401c.4183 0 .6231-.1837.6231-.5249 0-.3237-.239-.5075-.6145-.5075-.5548 0-.9304.21-1.2035.3938v-.8487c.2475-.1575.6828-.3674 1.3486-.3674.9218 0 1.4937.4111 1.4937 1.1548 0 .49-.2219.8749-.7511 1.0499.5634.1224.8792.4724.8792.9886 0 .8836-.5719 1.3823-1.6559 1.3823-.7341 0-1.2292-.21-1.4255-.3762zm6.9237.8399v-.8487c-.3159.2187-.8452.4112-1.3401.4112-.7426 0-1.0243-.3587-1.067-1.0936h2.4498v-.5512c0-1.531-.6572-2.1084-1.673-2.1084-1.2377 0-1.8266.9711-1.8266 2.3009 0 1.531.734 2.2747 2.0314 2.2747.6488 0 1.1267-.175 1.4255-.3849zm-1.6473-3.3684c.5036 0 .6572.4287.6572.9799v.0875h-1.417c.0257-.6999.2732-1.0674.7598-1.0674zm4.7399 1.0066v-1.7411h1.0158v4.4007h-1.0158v-1.8373h-1.3572v1.8373h-1.0158v-4.4007h1.0158v1.7411z" fill="#fff" fill-rule="evenodd"/></svg>