<svg fill="none" height="26" viewBox="0 0 26 26" width="26" xmlns="http://www.w3.org/2000/svg"><path clip-rule="evenodd" d="m10.0735 10.0055h3.4763v1.8278c.5008-1.0512 1.785-1.99577 3.7141-1.99577 3.6981 0 4.5761 2.09257 4.5761 5.93197v7.1106h-3.744v-6.2362c0-2.1865-.5008-3.4195-1.7756-3.4195-1.7681 0-2.5029 1.3289-2.5029 3.4185v6.2372h-3.744zm-6.41998 12.7067h3.744v-12.87467h-3.744zm4.28032-17.07268c.00014.33125-.06209.65923-.18309.96487s-.29834.58284-.52172.8155c-.45264.47486-1.06534.74066-1.70351.73903-.63706-.00045-1.24834-.26558-1.70165-.73804-.22257-.23345-.39931-.51097-.5201-.81665-.12078-.30568-.18323-.63351-.18377-.96471 0-.66888.25272-1.3091.7048-1.78137.45292-.47309 1.06446-.73833 1.70165-.73803.63835 0 1.2505.26577 1.70258.73803.45116.47227.70481 1.11249.70481 1.78137z" fill="#fff" fill-rule="evenodd"/></svg>