<svg width="20" height="20" viewBox="0 0 20 20" fill="none" xmlns="http://www.w3.org/2000/svg">
<path fill-rule="evenodd" clip-rule="evenodd" d="M18.6667 10.3333C18.6667 14.9354 14.9354 18.6667 10.3333 18.6667C5.73125 18.6667 2 14.9354 2 10.3333C2 5.73125 5.73125 2 10.3333 2C14.9354 2 18.6667 5.73125 18.6667 10.3333ZM10.6319 8.15208C9.82153 8.48889 8.20139 9.18681 5.77222 10.2451C5.37778 10.4021 5.17083 10.5556 5.15208 10.7056C5.12014 10.9597 5.43819 11.0597 5.87014 11.1951C5.92917 11.2139 5.99028 11.2326 6.05278 11.2535C6.47847 11.3917 7.05069 11.5535 7.34792 11.5597C7.61806 11.5653 7.91944 11.4542 8.25208 11.2264C10.5215 9.69375 11.6931 8.91944 11.7667 8.90278C11.8187 8.89097 11.891 8.87569 11.9396 8.91944C11.9882 8.9625 11.9833 9.04444 11.9785 9.06667C11.9465 9.20069 10.7007 10.3597 10.0549 10.9597C9.85347 11.1465 9.71111 11.2792 9.68194 11.3097C9.61667 11.3771 9.55 11.4417 9.48611 11.5035C9.09028 11.884 8.79444 12.1701 9.50278 12.6368C9.84306 12.8611 10.1153 13.0465 10.3868 13.2312C10.6833 13.4333 10.9792 13.6347 11.3625 13.8861C11.4597 13.95 11.5528 14.016 11.6437 14.0806C11.9889 14.3271 12.2993 14.5479 12.6826 14.5132C12.9049 14.4924 13.1354 14.2833 13.2521 13.659C13.5278 12.1826 14.0708 8.98542 14.1965 7.66736C14.2042 7.55793 14.1995 7.44798 14.1826 7.33958C14.1725 7.25204 14.1299 7.17148 14.0632 7.11389C13.9639 7.03264 13.8097 7.01528 13.7403 7.01667C13.4271 7.02222 12.9465 7.18958 10.6319 8.15208Z" fill="#505050"/>
</svg>
