<svg width="25" height="25" viewBox="0 0 25 25" fill="none" xmlns="http://www.w3.org/2000/svg">
<path d="M21.2646 4.41699C21.8583 4.41699 22.3062 4.93783 22.0666 5.90658L19.1604 19.6045C18.9573 20.5784 18.3687 20.8128 17.5562 20.3597L10.6239 15.2399C10.5971 15.2206 10.5752 15.1952 10.56 15.1658C10.5449 15.1363 10.5371 15.1037 10.5371 15.0706C10.5371 15.0376 10.5449 15.0049 10.56 14.9755C10.5752 14.9461 10.5971 14.9207 10.6239 14.9014L18.6291 7.6722C18.9937 7.34928 18.551 7.19303 18.0719 7.4847L8.02498 13.8232C7.99451 13.8431 7.95991 13.8558 7.92382 13.8603C7.88772 13.8648 7.85107 13.861 7.81665 13.8493L3.55102 12.5003C2.6031 12.2243 2.6031 11.5732 3.76456 11.1097L20.8323 4.52637C20.9676 4.46143 21.1146 4.42424 21.2646 4.41699Z" fill="white" stroke="white" stroke-width="0.520833" stroke-linecap="round" stroke-linejoin="round"/>
</svg>
