<svg width="18" height="17" viewBox="0 0 18 17" fill="none" xmlns="http://www.w3.org/2000/svg">
<path d="M16.384 3.85407C13.735 -0.000127406 8.32677 -1.14597 4.1326 1.24988C0.0487993 3.64573 -1.27568 8.85411 1.37327 12.7083L1.59402 13.0208L0.711037 16.1458L4.02222 15.3125L4.35334 15.5208C5.78819 16.25 7.33341 16.6667 8.87863 16.6667C10.5342 16.6667 12.1898 16.25 13.6247 15.4167C17.7085 12.9166 18.9226 7.81243 16.384 3.85407ZM14.0662 11.875C13.6247 12.5 13.0728 12.9166 12.3002 13.0208C11.8587 13.0208 11.3068 13.2291 9.09938 12.3958C7.22304 11.5625 5.67782 10.2083 4.57409 8.64577C3.91185 7.9166 3.58073 6.97909 3.47036 6.04159C3.47036 5.20825 3.80148 4.47907 4.35334 3.95824C4.57409 3.7499 4.79484 3.64573 5.01558 3.64573H5.56745C5.78819 3.64573 6.00894 3.64573 6.11931 4.0624C6.34006 4.58324 6.89192 5.83325 6.89192 5.93742C7.00229 6.04159 7.00229 6.24992 6.89192 6.35409C7.00229 6.56242 6.89192 6.77076 6.78155 6.87493C6.67118 6.97909 6.5608 7.18743 6.45043 7.29159C6.22968 7.39576 6.11931 7.6041 6.22968 7.81243C6.67118 8.43744 7.22304 9.06244 7.77491 9.58328C8.43714 10.1041 9.09938 10.5208 9.87199 10.8333C10.0927 10.9375 10.3135 10.9375 10.4239 10.7291C10.5342 10.5208 11.0861 9.99995 11.3068 9.79161C11.5276 9.58328 11.638 9.58328 11.8587 9.68745L13.6247 10.5208C13.8454 10.625 14.0662 10.7291 14.1765 10.8333C14.2869 11.1458 14.2869 11.5625 14.0662 11.875Z" fill="#505050"/>
</svg>
