<svg width="20" height="20" viewBox="0 0 20 20" fill="none" xmlns="http://www.w3.org/2000/svg">
<path d="M17.384 5.85407C14.735 1.99987 9.32677 0.854031 5.1326 3.24988C1.0488 5.64573 -0.275676 10.8541 2.37327 14.7083L2.59402 15.0208L1.71104 18.1458L5.02222 17.3125L5.35334 17.5208C6.78819 18.25 8.33341 18.6667 9.87863 18.6667C11.5342 18.6667 13.1898 18.25 14.6247 17.4167C18.7085 14.9166 19.9226 9.81243 17.384 5.85407ZM15.0662 13.875C14.6247 14.5 14.0728 14.9166 13.3002 15.0208C12.8587 15.0208 12.3068 15.2291 10.0994 14.3958C8.22304 13.5625 6.67782 12.2083 5.57409 10.6458C4.91185 9.9166 4.58073 8.97909 4.47036 8.04159C4.47036 7.20825 4.80148 6.47907 5.35334 5.95824C5.57409 5.7499 5.79484 5.64573 6.01558 5.64573H6.56745C6.78819 5.64573 7.00894 5.64573 7.11931 6.0624C7.34006 6.58324 7.89192 7.83325 7.89192 7.93742C8.00229 8.04159 8.00229 8.24992 7.89192 8.35409C8.00229 8.56242 7.89192 8.77076 7.78155 8.87493C7.67118 8.97909 7.5608 9.18743 7.45043 9.29159C7.22968 9.39576 7.11931 9.6041 7.22968 9.81243C7.67118 10.4374 8.22304 11.0624 8.77491 11.5833C9.43714 12.1041 10.0994 12.5208 10.872 12.8333C11.0927 12.9375 11.3135 12.9375 11.4239 12.7291C11.5342 12.5208 12.0861 11.9999 12.3068 11.7916C12.5276 11.5833 12.638 11.5833 12.8587 11.6874L14.6247 12.5208C14.8454 12.625 15.0662 12.7291 15.1765 12.8333C15.2869 13.1458 15.2869 13.5625 15.0662 13.875Z" fill="#505050"/>
</svg>
