<svg width="24" height="21" viewBox="0 0 24 21" fill="none" xmlns="http://www.w3.org/2000/svg">
<path fill-rule="evenodd" clip-rule="evenodd" d="M22.3395 4.86268C22.4906 4.36582 22.3395 4 21.616 4H19.2273C18.6194 4 18.3391 4.31577 18.1872 4.6643C18.1872 4.6643 16.9723 7.57266 15.2515 9.46182C14.6946 10.0096 14.4416 10.1835 14.1377 10.1835C13.9857 10.1835 13.7573 10.0096 13.7573 9.51187V4.86268C13.7573 4.26572 13.5898 4 13.0839 4H9.32741C8.94794 4 8.71953 4.27664 8.71953 4.53963C8.71953 5.10474 9.58039 5.23578 9.66866 6.82646V10.2826C9.66866 11.0407 9.52943 11.1781 9.22549 11.1781C8.41559 11.1781 6.44544 8.25607 5.27609 4.91273C5.0495 4.26208 4.82018 4 4.20957 4H1.819C1.1365 4 1 4.31577 1 4.6643C1 5.28492 1.8099 8.368 4.77195 12.4457C6.74665 15.2303 9.5267 16.74 12.0592 16.74C13.578 16.74 13.7655 16.4051 13.7655 15.8273V13.7224C13.7655 13.0518 13.9093 12.918 14.3906 12.918C14.7455 12.918 15.3525 13.0927 16.7703 14.435C18.3901 16.0266 18.6567 16.74 19.5685 16.74H21.9573C22.6398 16.74 22.982 16.4051 22.7854 15.7426C22.5688 15.0838 21.7953 14.1274 20.7697 12.9926C20.2128 12.3465 19.3774 11.6504 19.1236 11.3018C18.7696 10.855 18.8706 10.6557 19.1236 10.2581C19.1236 10.2581 22.0356 6.23041 22.3386 4.86268H22.3395Z" fill="#505050"/>
</svg>
