<svg width="20" height="20" viewBox="0 0 20 20" fill="none" xmlns="http://www.w3.org/2000/svg">
<path d="M9.89468 1.00259C8.48545 1.01981 5.45573 1.25428 3.76114 2.82837C2.50063 4.09297 2.06052 5.96264 2.00894 8.2746C1.96614 10.5782 1.91455 14.9043 6.03303 16.0822V17.8763C6.03303 17.8763 6.00724 18.5942 6.47588 18.7414C7.05318 18.9265 7.38189 18.3742 7.93065 17.7808L8.9541 16.609C11.772 16.8462 13.9303 16.2995 14.1789 16.2184C14.7507 16.0333 17.9714 15.6166 18.4977 11.29C19.0376 6.82164 18.2348 4.00629 16.7855 2.7328H16.7767C16.3394 2.32497 14.5817 1.02815 10.6547 1.0137C10.6547 1.0137 10.3633 0.993697 9.89468 1.00203V1.00259ZM9.94297 2.25885C10.343 2.25608 10.5861 2.2733 10.5861 2.2733C13.91 2.28219 15.4965 3.29509 15.8707 3.63625C17.0912 4.69527 17.7201 7.23336 17.2596 10.9638C16.8223 14.5809 14.2102 14.8098 13.7267 14.966C13.5209 15.0327 11.62 15.5072 9.22519 15.351C9.22519 15.351 7.4417 17.5302 6.88416 18.0914C6.79581 18.1897 6.69264 18.2186 6.62679 18.2042C6.5324 18.1808 6.50387 18.0625 6.50935 17.9002L6.52637 14.9226C3.03348 13.9447 3.23927 10.2548 3.27658 8.32738C3.31939 6.39992 3.67663 4.82306 4.74014 3.75515C6.17186 2.44443 8.74447 2.26774 9.94187 2.25885H9.94297ZM10.2064 4.18576C10.1776 4.18546 10.1491 4.19093 10.1225 4.20185C10.0958 4.21277 10.0716 4.22892 10.0511 4.24938C10.0306 4.26983 10.0144 4.29418 10.0033 4.32103C9.99216 4.34787 9.98639 4.37668 9.98632 4.40578C9.98632 4.53024 10.0862 4.62859 10.2064 4.62859C10.7505 4.61811 11.2912 4.7168 11.7975 4.91897C12.3037 5.12114 12.7654 5.42279 13.156 5.80651C13.9533 6.5905 14.3419 7.64396 14.3567 9.02135C14.3567 9.14304 14.4538 9.24416 14.5767 9.24416V9.23527C14.6347 9.23542 14.6903 9.21237 14.7315 9.17116C14.7728 9.12994 14.7962 9.0739 14.7968 9.01524C14.8234 8.36691 14.7196 7.71987 14.4916 7.11343C14.2636 6.507 13.9161 5.95384 13.4704 5.48759C12.6017 4.62803 11.5009 4.1852 10.2064 4.1852V4.18576ZM7.31384 4.69527C7.15851 4.67229 7.0001 4.70386 6.86495 4.78472H6.85343C6.53968 4.97093 6.25704 5.20628 6.01602 5.48203C5.81572 5.7165 5.70706 5.95375 5.67852 6.18212C5.66151 6.31824 5.67304 6.45437 5.7131 6.58439L5.72737 6.59328C5.95291 7.26447 6.24759 7.91011 6.60758 8.51796C7.0713 9.37193 7.64198 10.1617 8.30546 10.8677L8.32521 10.8966L8.35649 10.9199L8.37625 10.9433L8.3993 10.9633C9.0991 11.637 9.88101 12.2175 10.7261 12.6907C11.6919 13.223 12.278 13.4747 12.6297 13.5791V13.5847C12.7329 13.6164 12.8267 13.6308 12.9211 13.6308C13.2209 13.6086 13.5047 13.4853 13.7272 13.2808C13.9984 13.0367 14.2282 12.7493 14.4077 12.4301V12.4246C14.5762 12.1034 14.5191 11.7995 14.276 11.5939C13.7892 11.163 13.2627 10.7803 12.7038 10.451C12.3295 10.2454 11.9493 10.3699 11.795 10.5782L11.4663 10.9977C11.2979 11.2061 10.9917 11.1772 10.9917 11.1772L10.9829 11.1827C8.69947 10.5921 8.09034 8.25126 8.09034 8.25126C8.09034 8.25126 8.06181 7.93289 8.27308 7.77064L8.68466 7.43505C8.88166 7.27281 9.01885 6.88831 8.80758 6.50882C8.48458 5.94217 8.10741 5.40899 7.68151 4.91696C7.58841 4.80096 7.45778 4.72204 7.31274 4.69415L7.31384 4.69527ZM10.5861 5.35535C10.2947 5.35535 10.2947 5.80096 10.5889 5.80096C10.9512 5.80691 11.3088 5.8851 11.6413 6.03106C11.9738 6.17702 12.2746 6.38789 12.5266 6.65162C12.7564 6.90832 12.933 7.20912 13.0459 7.53619C13.1589 7.86327 13.2058 8.20996 13.184 8.55574C13.185 8.61426 13.2086 8.67005 13.2497 8.71118C13.2908 8.7523 13.3462 8.77549 13.404 8.77577L13.4128 8.78744C13.471 8.787 13.5268 8.76339 13.5679 8.7217C13.6091 8.68001 13.6324 8.62359 13.6329 8.56463C13.6526 7.68175 13.3815 6.9411 12.8498 6.34769C12.3153 5.75428 11.5695 5.42147 10.6174 5.35535H10.5861ZM10.9467 6.55327C10.6465 6.54438 10.635 6.99888 10.9324 7.00777C11.6557 7.04556 12.0069 7.4156 12.053 8.17681C12.054 8.23459 12.0773 8.28967 12.1179 8.33028C12.1585 8.37088 12.2132 8.39377 12.2703 8.39405H12.2791C12.3084 8.39278 12.3372 8.3856 12.3638 8.37294C12.3904 8.36027 12.4142 8.34237 12.4338 8.32029C12.4535 8.2982 12.4686 8.27237 12.4783 8.2443C12.488 8.21623 12.4921 8.18649 12.4903 8.1568C12.4387 7.16446 11.9043 6.6055 10.9554 6.55383H10.9467V6.55327Z" fill="#505050"/>
</svg>
