<svg fill="none" height="25" viewBox="0 0 33 25" width="33" xmlns="http://www.w3.org/2000/svg"><path d="m28.4798 6.77873c-.1415-.50496-.4173-.96214-.7979-1.32291-.3914-.37187-.871-.63788-1.3938-.77292-1.9562-.51563-9.7937-.51563-9.7937-.51563-3.2674-.03717-6.53394.12633-9.78126.48959-.52272.14501-1.00149.41696-1.39375.79166-.38541.37084-.66458.82813-.81041 1.32917-.35032 1.88723-.52053 3.80351-.50834 5.72291-.0125 1.9177.15729 3.8333.50834 5.7229.1427.499.42083.9542.80729 1.3219s.86771.6333 1.39687.774c1.9823.5145 9.78126.5145 9.78126.5145 3.2715.0373 6.5422-.1262 9.7937-.4895.5228-.1351 1.0024-.4011 1.3938-.773.3805-.3607.6559-.8179.7969-1.3229.3594-1.8865.5342-3.8035.5218-5.7239.0271-1.9286-.1475-3.85465-.5208-5.74691zm-14.4771 9.28857v-7.13232l6.5209 3.56662z" fill="#fff"/></svg>