<?xml version="1.0" standalone="no"?>
<!DOCTYPE svg PUBLIC "-//W3C//DTD SVG 20010904//EN"
 "http://www.w3.org/TR/2001/REC-SVG-20010904/DTD/svg10.dtd">
<svg version="1.0" xmlns="http://www.w3.org/2000/svg"
 width="864.000000pt" height="864.000000pt" viewBox="0 0 864.000000 864.000000"
 preserveAspectRatio="xMidYMid meet">
<metadata>
Created by potrace 1.14, written by Peter Selinger 2001-2017
</metadata>
<g transform="translate(0.000000,864.000000) scale(0.100000,-0.100000)"
fill="#000000" stroke="none">
<path d="M4019 8385 c-2 -1 -47 -6 -99 -10 -52 -4 -111 -8 -130 -11 -19 -2
-51 -6 -70 -8 -105 -13 -192 -26 -213 -32 -10 -3 -30 -7 -45 -9 -58 -8 -226
-47 -344 -81 -68 -20 -127 -37 -133 -38 -5 -1 -20 -8 -32 -14 -13 -7 -23 -10
-23 -7 0 3 -13 -1 -30 -10 -16 -9 -30 -13 -30 -9 0 4 -6 2 -12 -3 -7 -5 -35
-18 -63 -28 -27 -9 -63 -23 -80 -31 -152 -65 -301 -138 -400 -195 -38 -22 -78
-42 -87 -45 -10 -4 -18 -10 -18 -15 0 -5 -5 -9 -11 -9 -20 0 -436 -290 -459
-321 -3 -3 -34 -30 -70 -60 -130 -108 -403 -380 -490 -489 -14 -17 -32 -39
-41 -48 -8 -9 -42 -51 -75 -92 -32 -41 -61 -77 -64 -80 -3 -3 -33 -43 -65 -90
-33 -47 -63 -86 -67 -88 -4 -2 -8 -8 -8 -14 0 -5 -13 -29 -30 -53 -16 -24 -30
-48 -30 -53 0 -6 -4 -12 -9 -14 -10 -4 -131 -212 -131 -226 0 -6 -3 -12 -8
-14 -22 -10 -232 -488 -246 -561 -2 -12 -12 -40 -21 -62 -10 -22 -19 -49 -21
-61 -2 -11 -13 -49 -24 -84 -11 -35 -18 -65 -15 -68 2 -2 -1 -14 -7 -26 -7
-11 -12 -25 -13 -31 0 -5 -4 -23 -8 -40 -23 -93 -41 -182 -52 -260 -4 -22 -8
-47 -10 -55 -3 -8 -7 -35 -10 -60 -3 -25 -8 -56 -10 -70 -2 -14 -7 -52 -10
-85 -3 -33 -8 -71 -10 -85 -22 -139 -22 -718 0 -880 3 -19 8 -60 11 -90 7 -76
13 -119 19 -157 14 -90 16 -98 32 -183 3 -19 7 -42 9 -50 2 -8 6 -31 10 -50 4
-19 8 -42 10 -50 4 -22 23 -92 56 -210 63 -224 142 -428 254 -655 94 -192 123
-243 212 -382 34 -54 68 -107 75 -118 6 -11 14 -22 17 -25 3 -3 17 -21 30 -40
26 -38 188 -248 205 -266 6 -6 31 -36 56 -65 89 -108 461 -469 533 -518 11 -8
23 -17 26 -21 7 -8 62 -52 94 -75 15 -11 40 -30 54 -42 15 -13 30 -23 34 -23
4 0 13 -6 20 -13 24 -23 196 -137 207 -137 6 0 11 -4 11 -9 0 -5 8 -11 18 -14
9 -4 35 -17 57 -31 110 -69 344 -184 495 -244 122 -49 324 -119 365 -127 11
-2 20 -4 20 -5 0 -2 -5 0 130 -35 55 -14 123 -29 150 -34 266 -49 371 -63 595
-77 184 -11 660 -6 660 7 0 3 12 5 28 4 15 0 47 2 72 6 40 6 67 9 180 24 46 6
105 16 130 21 14 3 36 8 50 11 14 2 45 9 70 14 25 6 52 12 60 14 58 12 164 42
275 77 72 23 132 42 135 43 3 0 15 6 28 13 12 7 22 11 22 8 0 -5 49 15 137 55
24 10 45 19 47 19 9 0 293 142 341 170 28 17 58 33 68 36 9 4 17 10 17 15 0 5
6 9 13 9 11 0 84 45 113 68 5 5 21 15 35 22 13 7 26 16 29 19 3 3 25 19 50 36
25 16 56 40 69 52 13 13 28 23 33 23 5 0 19 9 31 20 12 11 49 41 82 67 33 26
65 52 71 58 6 5 38 33 70 60 80 68 347 336 414 414 30 35 60 69 65 75 27 29
135 165 135 170 0 3 11 17 24 31 50 54 286 422 286 446 0 5 5 9 10 9 6 0 10 6
10 14 0 7 9 25 21 40 11 14 18 26 15 26 -5 0 24 59 64 130 5 8 15 31 23 50 22
52 57 132 67 155 52 112 172 487 196 610 11 55 13 66 17 73 3 4 8 27 11 52 3
25 8 56 11 70 4 14 8 36 10 50 2 14 6 34 8 45 3 11 8 45 12 75 3 30 8 66 10
80 4 28 12 97 20 185 3 33 8 105 10 160 3 55 6 109 8 120 2 11 1 32 -4 48 -4
15 -4 27 0 27 8 0 6 134 -3 149 -4 6 -3 11 3 11 5 0 8 9 6 20 -2 11 -7 73 -10
138 -13 227 -33 400 -60 532 -3 14 -7 42 -10 63 -2 21 -6 41 -9 45 -2 4 -7 24
-10 44 -5 31 -15 78 -30 143 -2 6 -8 30 -15 55 -8 25 -14 50 -15 55 -10 43
-67 225 -86 270 -4 11 -18 47 -30 80 -26 70 -101 244 -142 330 -38 77 -121
230 -169 310 -39 65 -174 267 -207 310 -17 22 -38 49 -46 60 -27 34 -110 139
-131 163 -11 13 -28 33 -38 45 -147 175 -390 411 -582 563 -33 27 -62 51 -65
54 -3 3 -21 17 -40 30 -19 14 -39 28 -45 33 -29 24 -197 137 -205 137 -4 0
-10 4 -12 8 -3 8 -19 18 -173 107 -77 44 -300 158 -315 160 -3 0 -15 6 -27 13
-13 7 -23 10 -23 6 0 -3 -6 -2 -12 4 -35 28 -373 145 -543 188 -48 12 -158 36
-180 39 -11 2 -20 4 -20 5 0 1 -9 3 -20 5 -11 1 -36 6 -55 10 -46 9 -76 14
-125 20 -22 2 -56 7 -75 10 -19 3 -60 8 -90 11 -30 3 -75 8 -100 10 -52 6
-626 15 -631 9z"/>
</g>
</svg>
